<?xml version="1.0" encoding="UTF-8"?><svg id="Layer_1" xmlns="http://www.w3.org/2000/svg" width="90" height="90" xmlns:xlink="http://www.w3.org/1999/xlink" viewBox="0 0 90 90"><defs><style>.cls-1{clip-path:url(#clippath);}.cls-2,.cls-3,.cls-4,.cls-5,.cls-6,.cls-7,.cls-8{stroke-width:0px;}.cls-2,.cls-9{fill:none;}.cls-10{opacity:.1;}.cls-11,.cls-12,.cls-13,.cls-14,.cls-15{stroke-linecap:round;stroke-linejoin:round;stroke-width:.5px;}.cls-11,.cls-12,.cls-13,.cls-14,.cls-15,.cls-9{stroke:#fff;}.cls-11,.cls-7{fill:#c789f9;}.cls-12{fill:url(#radial-gradient);}.cls-13{fill:url(#linear-gradient-2);}.cls-14{fill:url(#linear-gradient-3);}.cls-3{opacity:.4;}.cls-15{fill:url(#linear-gradient);}.cls-4{fill:#7a56a9;}.cls-5{fill:#492b73;}.cls-6{fill:#9650cd;}.cls-8{fill:#e69df9;}.cls-9{stroke-miterlimit:10;stroke-width:.9306px;}</style><clipPath id="clippath"><rect class="cls-2" x="-124.53206" y="231.87487" width="442.99958" height="300"/></clipPath><linearGradient id="linear-gradient" x1="31.66261" y1="52.56814" x2="59.63368" y2="52.56814" gradientUnits="userSpaceOnUse"><stop offset=".02855" stop-color="#e69df9"/><stop offset=".22448" stop-color="#dc93f3"/><stop offset=".55014" stop-color="#c37be5"/><stop offset=".96317" stop-color="#9a53cf"/><stop offset="1" stop-color="#9650cd"/></linearGradient><linearGradient id="linear-gradient-2" x1="42.82812" y1="42.15912" x2="48.46818" y2="42.15912" xlink:href="#linear-gradient"/><radialGradient id="radial-gradient" cx="-81.03978" cy="186.5147" fx="-81.03978" fy="186.5147" r="4.78303" gradientTransform="translate(221.97638 -84.40964) rotate(36.97898)" gradientUnits="userSpaceOnUse"><stop offset=".02855" stop-color="#e69df9"/><stop offset=".22448" stop-color="#dc93f3"/><stop offset=".55014" stop-color="#c37be5"/><stop offset=".96317" stop-color="#9a53cf"/><stop offset="1" stop-color="#9650cd"/></radialGradient><linearGradient id="linear-gradient-3" x1="-72.75277" y1="207.29429" x2="-66.71663" y2="201.12097" gradientTransform="translate(221.97638 -84.40964) rotate(36.97898)" xlink:href="#linear-gradient"/></defs><g class="cls-1"><g class="cls-10"><line class="cls-9" x1="-151.41974" y1="88.27011" x2="202.35562" y2="292.52241"/><line class="cls-9" x1="-151.41974" y1="47.61762" x2="202.35562" y2="251.86992"/><line class="cls-9" x1="202.35562" y1="88.27011" x2="-151.41974" y2="292.52241"/><line class="cls-9" x1="202.35562" y1="47.61762" x2="-151.41974" y2="251.86992"/></g></g><path class="cls-3" d="M43.86171,86.1518l-34.15266-19.71805c-.62879-.36303-.62879-.95162,0-1.31465l34.1522-19.71778c.62879-.36303,1.64826-.36303,2.27705,0l34.15266,19.71805c.62879.36303.62879.95162,0,1.31465l-34.1522,19.71778c-.62879.36303-1.64826.36303-2.27705,0Z"/><polygon class="cls-7" points="45.00011 71.98235 9.79387 51.65602 44.99989 31.32982 80.20613 51.65615 45.00011 71.98235"/><polygon class="cls-8" points="9.79387 51.65602 9.79387 58.60601 45.00011 78.93234 45.00011 71.98235 9.79387 51.65602"/><polygon class="cls-6" points="80.20613 51.65615 80.20613 58.60613 45.00011 78.93234 45.00011 71.98235 80.20613 51.65615"/><ellipse class="cls-4" cx="45.63721" cy="52.56814" rx="14.28608" ry="8.24807"/><path class="cls-15" d="M55.53742,52.97938c-5.46167,3.15329-14.31681,3.15329-19.77848-.00007-2.73084-1.57664-4.09633-3.64306-4.09633-5.70954v2.52218c0,2.06648,1.36549,4.1329,4.09633,5.70961,5.46167,3.15329,14.31681,3.15329,19.77848,0,2.73091-1.57664,4.09633-3.64313,4.09625-5.70961v-2.52218c0,2.06648-1.36535,4.13297-4.09625,5.70961Z"/><ellipse class="cls-11" cx="45.64815" cy="47.26977" rx="13.98555" ry="8.07456"/><ellipse class="cls-5" cx="45.64815" cy="47.26977" rx="6.39551" ry="3.69245"/><path class="cls-13" d="M42.82812,35.71935v11.25139h0c0,.41668.27534.83335.82596,1.15123,1.1013.63588,2.88684.63588,3.98814,0,.55062-.31788.82596-.73455.82596-1.15123h0v-11.25139h-5.64006Z"/><circle class="cls-12" cx="45.64815" cy="18.8115" r="4.76174"/><path class="cls-14" d="M46.78965,23.42004c-.36756.09088-.74582.15314-1.14145.15314s-.77403-.06226-1.14145-.15314l-3.5258,22.82731c-.18182.92188.13132,1.80862,1.30015,2.48343,1.85962,1.07364,4.87458,1.07364,6.73406,0,1.16883-.67481,1.46949-1.46101,1.30015-2.48343l-3.52565-22.82731Z"/><path class="cls-11" d="M54.11574,21.45057c-.15527,0-.3125-.04785-.44727-.14844-.33203-.24805-.40039-.71777-.15332-1.0498.01562-.02051,1.56348-2.12988.76172-3.80078-.14844-.30566-.36621-.58496-.64844-.82617-.31445-.26953-.35059-.74219-.08105-1.05762.27051-.31445.74316-.34863,1.05762-.08105.43945.37695.78418.81934,1.02344,1.31445,1.1709,2.43945-.69434,5.05664-.91016,5.34766-.14746.19727-.37305.30176-.60254.30176Z"/><path class="cls-11" d="M57.06789,23.17518c-.12891,0-.25977-.0332-.37988-.10352-.35645-.20996-.47559-.66992-.26562-1.02734.38379-.65137,3.67871-6.47754,1.24023-10.36133-.29102-.46191-.65625-.88574-1.08594-1.26074-.3125-.27148-.3457-.74609-.07324-1.05762.27246-.31348.74609-.3457,1.05762-.07324.54102.4707,1.00195,1.00684,1.37109,1.59375,2.85059,4.53906-.51367,10.72656-1.2168,11.9209-.13965.2373-.39062.36914-.64746.36914Z"/><path class="cls-11" d="M59.99465,24.7953c-.12891,0-.25977-.0332-.37988-.10352-.35645-.21094-.47559-.66992-.26562-1.02734.05078-.08594.12988-.20898.22949-.36621,3.74512-5.86328,4.29883-11.21094,1.64551-15.89355-.38574-.68262-.96777-1.375-1.72949-2.05957-.30859-.27637-.33398-.75098-.05664-1.05859.27637-.30859.75098-.33301,1.05859-.05664.88281.79297,1.56738,1.6123,2.03223,2.43555,2.02734,3.57812,3.38086,9.50781-1.68652,17.44043-.08691.13672-.15625.24414-.2002.32031-.13965.2373-.39062.36914-.64746.36914Z"/><path class="cls-11" d="M37.18019,23.31678c-.17285,0-.34668-.05957-.48828-.18066-.44238-.37891-.78711-.82227-1.02441-1.31641-1.16992-2.4375.69531-5.05469.91113-5.3457.24805-.33105.71582-.40332,1.0498-.15332.33203.24805.40039.71777.15332,1.0498-.01562.02051-1.56348,2.12988-.76172,3.80078.14648.30566.36426.58301.64844.82617.31445.26953.35059.74219.08105,1.05762-.14844.17285-.3584.26172-.56934.26172Z"/><path class="cls-11" d="M34.22707,28.51698c-.1748,0-.35059-.06055-.49316-.18457-.54199-.47363-1.00293-1.01074-1.37012-1.5957-2.8457-4.53027.51465-10.72363,1.2168-11.91895.20898-.3584.66895-.47852,1.02637-.2666.35742.20996.47656.66895.2666,1.02637-.38281.65234-3.67383,6.48535-1.23926,10.36133.29004.46191.6543.88672,1.08594,1.2627.3125.27246.34473.74609.07227,1.05859-.14844.16992-.35645.25684-.56543.25684Z"/><path class="cls-11" d="M31.30031,33.58632c-.17871,0-.3584-.06348-.50195-.19238-.7998-.71973-1.47949-1.53223-2.01855-2.41406-4.16504-6.80371.83008-16.00684,1.87402-17.78223.20898-.3584.66895-.47852,1.02637-.2666.35742.20996.47656.66895.2666,1.02637-.96777,1.64648-5.60547,10.16602-1.8877,16.23926.46387.75879,1.0498,1.45898,1.74316,2.08203.30762.27734.33301.75098.05566,1.05957-.14844.16406-.35254.24805-.55762.24805Z"/></svg>