<?xml version="1.0" encoding="UTF-8"?><svg id="Layer_1" xmlns="http://www.w3.org/2000/svg" width="90" height="90" xmlns:xlink="http://www.w3.org/1999/xlink" viewBox="0 0 90 90"><defs><style>.cls-1{clip-path:url(#clippath);}.cls-2,.cls-3,.cls-4,.cls-5,.cls-6,.cls-7,.cls-8{stroke-width:0px;}.cls-2,.cls-9{fill:none;}.cls-10{opacity:.1;}.cls-11,.cls-12,.cls-13,.cls-14,.cls-15,.cls-16,.cls-17{stroke-linecap:round;stroke-linejoin:round;stroke-width:.5px;}.cls-11,.cls-12,.cls-13,.cls-14,.cls-15,.cls-16,.cls-17,.cls-9{stroke:#fff;}.cls-11,.cls-7{fill:#c789f9;}.cls-12,.cls-5{fill:#492b73;}.cls-13{fill:url(#radial-gradient);}.cls-14{fill:url(#linear-gradient-2);}.cls-15{fill:url(#linear-gradient-3);}.cls-16{fill:url(#linear-gradient-4);}.cls-3{opacity:.4;}.cls-17{fill:url(#linear-gradient);}.cls-4{fill:#7a56a9;}.cls-6{fill:#9650cd;}.cls-8{fill:#e69df9;}.cls-9{stroke-miterlimit:10;stroke-width:.9306px;}</style><clipPath id="clippath"><rect class="cls-2" x="-19.25267" y="231.87487" width="442.99958" height="300"/></clipPath><linearGradient id="linear-gradient" x1="31.66261" y1="52.56814" x2="59.63368" y2="52.56814" gradientUnits="userSpaceOnUse"><stop offset=".02855" stop-color="#e69df9"/><stop offset=".22448" stop-color="#dc93f3"/><stop offset=".55014" stop-color="#c37be5"/><stop offset=".96317" stop-color="#9a53cf"/><stop offset="1" stop-color="#9650cd"/></linearGradient><linearGradient id="linear-gradient-2" x1="42.82812" y1="42.15912" x2="48.46818" y2="42.15912" xlink:href="#linear-gradient"/><linearGradient id="linear-gradient-3" x1="29.80164" y1="45.09249" x2="57.78813" y2="21.26025" xlink:href="#linear-gradient"/><radialGradient id="radial-gradient" cx="28.84002" cy="16.312" fx="28.84002" fy="16.312" r="2.52064" gradientUnits="userSpaceOnUse"><stop offset=".02855" stop-color="#e69df9"/><stop offset=".22448" stop-color="#dc93f3"/><stop offset=".55014" stop-color="#c37be5"/><stop offset=".96317" stop-color="#9a53cf"/><stop offset="1" stop-color="#9650cd"/></radialGradient><linearGradient id="linear-gradient-4" x1="32.71598" y1="26.41842" x2="35.92277" y2="23.13876" xlink:href="#linear-gradient"/></defs><g class="cls-1"><g class="cls-10"><line class="cls-9" x1="-46.14035" y1="88.27011" x2="307.63501" y2="292.52241"/><line class="cls-9" x1="-46.14035" y1="47.61762" x2="307.63501" y2="251.86992"/><line class="cls-9" x1="307.63501" y1="88.27011" x2="-46.14035" y2="292.52241"/><line class="cls-9" x1="307.63501" y1="47.61762" x2="-46.14035" y2="251.86992"/></g></g><path class="cls-3" d="M43.86171,86.1518l-34.15266-19.71805c-.62879-.36303-.62879-.95162,0-1.31465l34.1522-19.71778c.62879-.36303,1.64826-.36303,2.27705,0l34.15266,19.71805c.62879.36303.62879.95162,0,1.31465l-34.1522,19.71778c-.62879.36303-1.64826.36303-2.27705,0Z"/><polygon class="cls-7" points="45.00011 71.98235 9.79387 51.65602 44.99989 31.32982 80.20613 51.65615 45.00011 71.98235"/><polygon class="cls-8" points="9.79387 51.65602 9.79387 58.60601 45.00011 78.93234 45.00011 71.98235 9.79387 51.65602"/><polygon class="cls-6" points="80.20613 51.65615 80.20613 58.60613 45.00011 78.93234 45.00011 71.98235 80.20613 51.65615"/><path class="cls-11" d="M21.81439,18.82256c-.04492,0-.09082-.00391-.1377-.0127-.40723-.0752-.67578-.4668-.60059-.87402.88184-4.77148,4.49023-8.63477,9.19336-9.84229.39648-.10205.80957.1377.91309.54004.10254.40137-.13867.81006-.54004.91309-4.13965,1.0625-7.31543,4.4624-8.0918,8.6626-.06641.36035-.38184.61328-.73633.61328Z"/><path class="cls-11" d="M16.84661,18.57549c-.03613,0-.07324-.00293-.10938-.00781-.41016-.06055-.69336-.44141-.63379-.85059.03418-.22949.07129-.45801.11328-.68359,1.23047-6.65576,6.2627-12.04346,12.82031-13.72705.34863-.08936.70117-.16846,1.05762-.23633.40625-.07422.7998.18896.87695.59619.07812.40723-.18945.7998-.5957.87744-.3252.06201-.64844.13428-.96582.21582-5.99414,1.53857-10.59375,6.46338-11.71875,12.54639-.03809.20703-.07324.41797-.10352.62793-.05469.37305-.375.6416-.74121.6416Z"/><ellipse class="cls-4" cx="45.63721" cy="52.56814" rx="14.28608" ry="8.24807"/><path class="cls-17" d="M55.53742,52.97938c-5.46167,3.15329-14.31681,3.15329-19.77848-.00007-2.73084-1.57664-4.09633-3.64306-4.09633-5.70954v2.52218c0,2.06648,1.36549,4.1329,4.09633,5.70961,5.46167,3.15329,14.31681,3.15329,19.77848,0,2.73091-1.57664,4.09633-3.64313,4.09625-5.70961v-2.52218c0,2.06648-1.36535,4.13297-4.09625,5.70961Z"/><ellipse class="cls-11" cx="45.64815" cy="47.26977" rx="13.98555" ry="8.07456"/><ellipse class="cls-5" cx="45.64815" cy="47.26977" rx="6.39551" ry="3.69245"/><path class="cls-14" d="M42.82812,35.71935v11.25139h0c0,.41668.27534.83335.82596,1.15123,1.1013.63588,2.88684.63588,3.98814,0,.55062-.31788.82596-.73455.82596-1.15123h0v-11.25139h-5.64006Z"/><path class="cls-15" d="M21.46778,40.06087c5.79002,7.56214,17.7261,8.21588,26.73271,1.43408,9.00656-6.78175,11.67673-18.43368,6.0091-26.08797l-32.74181,24.65389Z"/><ellipse class="cls-11" cx="37.76706" cy="27.63881" rx="20.50005" ry="8.4581" transform="translate(-9.02875 28.27709) rotate(-36.97897)"/><ellipse class="cls-12" cx="37.76706" cy="27.63881" rx="17.81737" ry="6.25097" transform="translate(-9.02875 28.27709) rotate(-36.97897)"/><circle class="cls-13" cx="30.0356" cy="17.37098" r="2.50942"/><path class="cls-16" d="M31.97707,18.9493c-.12593.15478-.26544.3009-.432.42631s-.3456.21916-.52909.29737l4.6061,9.20615c.14951.46166.62862.71979,1.3346.63336,1.12323-.1375,2.39252-1.09325,2.835-2.1347.27816-.65461.16247-1.18639-.23989-1.45766l-7.57473-6.97083Z"/></svg>