<?xml version="1.0" encoding="UTF-8"?><svg xmlns="http://www.w3.org/2000/svg" width="90" height="90" xmlns:xlink="http://www.w3.org/1999/xlink" viewBox="0 0 90 90"><defs><style>.cls-1{fill:url(#radial-gradient);}.cls-1,.cls-2,.cls-3,.cls-4,.cls-5,.cls-6,.cls-7,.cls-8,.cls-9{stroke-width:0px;}.cls-2{opacity:.2;}.cls-2,.cls-3,.cls-5{fill:#fff;}.cls-10{fill:url(#linear-gradient);}.cls-10,.cls-11{stroke-miterlimit:10;}.cls-10,.cls-11,.cls-12,.cls-13{stroke:#fff;stroke-width:.5px;}.cls-11{fill:#65c4de;}.cls-3,.cls-4{opacity:.4;}.cls-12{fill:url(#linear-gradient-2);}.cls-12,.cls-13{stroke-linecap:round;stroke-linejoin:round;}.cls-13{fill:none;}.cls-14{mix-blend-mode:screen;opacity:.6;}.cls-15{isolation:isolate;}.cls-5{opacity:.3;}.cls-6{fill:#48accb;}.cls-7{fill:#548ea7;}.cls-8{fill:#88e1f6;}.cls-9{fill:#9afbff;}</style><linearGradient id="linear-gradient" x1="50.79058" y1="22.49654" x2="46.99383" y2="35.81734" gradientUnits="userSpaceOnUse"><stop offset="0" stop-color="#88e1f6"/><stop offset=".30057" stop-color="#78d4eb"/><stop offset=".8785" stop-color="#51b3d1"/><stop offset="1" stop-color="#48accb"/></linearGradient><linearGradient id="linear-gradient-2" x1="45.46859" y1="15.54512" x2="65.28891" y2="47.20616" gradientUnits="userSpaceOnUse"><stop offset=".36282" stop-color="#88e1f6"/><stop offset=".52051" stop-color="#48accb"/><stop offset=".55512" stop-color="#69c7e1"/><stop offset=".58518" stop-color="#7fdaf0"/><stop offset=".6044" stop-color="#88e1f6"/><stop offset=".75922" stop-color="#88e1f6"/><stop offset=".80337" stop-color="#7cd7ee"/><stop offset=".88137" stop-color="#5ebeda"/><stop offset=".93174" stop-color="#48accb"/></linearGradient><radialGradient id="radial-gradient" cx="36.24093" cy="42.04513" fx="36.24093" fy="42.04513" r="17.27287" gradientUnits="userSpaceOnUse"><stop offset="0" stop-color="#88e1f6"/><stop offset=".16546" stop-color="#84dcf1"/><stop offset=".34218" stop-color="#7bd0e4"/><stop offset=".5242" stop-color="#6cbbcf"/><stop offset=".70977" stop-color="#579eb1"/><stop offset=".89635" stop-color="#3c788b"/><stop offset="1" stop-color="#2b6173"/></radialGradient></defs><g class="cls-15"><g id="Layer_1"><path class="cls-4" d="M43.86171,86.1518l-34.15266-19.71805c-.62879-.36303-.62879-.95162,0-1.31465l34.1522-19.71778c.62879-.36303,1.64826-.36303,2.27705,0l34.15266,19.71805c.62879.36303.62879.95162,0,1.31465l-34.1522,19.71778c-.62879.36303-1.64826.36303-2.27705,0Z"/><polygon class="cls-8" points="45.00011 71.98235 9.79387 51.65602 44.99989 31.32982 80.20613 51.65615 45.00011 71.98235"/><polygon class="cls-9" points="9.79387 51.65602 9.79387 58.60601 45.00011 78.93234 45.00011 71.98235 9.79387 51.65602"/><polygon class="cls-6" points="80.20613 51.65615 80.20613 58.60613 45.00011 78.93234 45.00011 71.98235 80.20613 51.65615"/><path class="cls-7" d="M59.93585,56.40016l-21.60894-12.47593c-.77344-.44655-.67645-1.22654.21664-1.74217l2.55954-1.47775c.89309-.51563,2.24408-.57162,3.01752-.12508l21.60894,12.47593c.77344.44655.67645,1.22654-.21664,1.74217l-2.55954,1.47775c-.89309.51563-2.24408.57162-3.01752.12508Z"/><path class="cls-10" d="M56.30591,33.49484c-.4644-.26812-.91731-.47448-1.35663-.62915-1.20354-5.12348-4.78511-10.40451-9.01756-12.84811-4.72578-2.72843-8.62989-.97284-9.32823,3.85504-.04581-.02759-.09031-.0601-.13638-.0867-3.47575-2.00673-6.29343-.37996-6.29343,3.63347,0,4.01343,2.81768,8.89371,6.29343,10.90043l19.8388,11.45394c3.89304,2.24765,7.04902.42562,7.04902-4.0697s-3.15599-9.96157-7.04902-12.20921Z"/><path class="cls-11" d="M36.46712,23.7859c.04608.02661.09058.05914.13635.08673.24762-1.71185.90436-3.0282,1.85181-3.9046-.40289.04401-.78052.14661-1.11945.32043l-.00293-.00604-.06738.03925c-.04346.02374-.086.04883-.12817.07471l-4.80682,2.80066c1.10663-.47839,2.55115-.32648,4.1366.58887Z"/><path class="cls-12" d="M68.53933,42.71088c0-4.49536-3.15594-9.96161-7.04901-12.20923-.46436-.26813-.9173-.47449-1.35663-.62915-1.20355-5.12347-4.7851-10.40454-9.01752-12.84814-2.57306-1.48553-4.89752-1.63281-6.59857-.68768l-.00354-.00909-5.07947,2.93671.01483.00574c1.69031-.87567,3.96686-.70477,6.4823.74756,4.23242,2.4436,7.81403,7.72461,9.01758,12.84808.43933.15466.89221.36102,1.35663.62915,3.89301,2.24768,7.04901,7.71393,7.04901,12.20923,0,2.22705-.77618,3.79535-2.03131,4.54034l.00061.00311,5.13971-2.96808c.0069-.00397.01379-.00793.02069-.01196l.01752-.01013-.00159-.00092c1.2597-.74316,2.03876-2.31384,2.03876-4.54553Z"/><path class="cls-2" d="M46.01591,29.60526l-3.55329-2.05149c-.38252-.22085-.69262-.81334-.69262-1.32337v-3.8555c0-.51003.3101-.74446.69262-.52361l3.55329,2.05149c.38252.22085.69262.81334.69262,1.32337v3.8555c0,.51003-.3101.74446-.69262.52361Z"/><path class="cls-5" d="M48.69624,34.91679l-2.98658-1.72431c-.32151-.18563-.58215-.68363-.58215-1.11231v-3.2406c0-.42869.26064-.62573.58215-.4401l2.98658,1.72431c.32151.18563.58215.68363.58215,1.11231v3.2406c0,.42869-.26064.62573-.58215.4401Z"/><path class="cls-5" d="M56.10238,46.98028l-2.54811-1.47115c-.27431-.15837-.49669-.58326-.49669-.94901v-2.76483c0-.36575.22237-.53386.49669-.37549l2.54811,1.47115c.27431.15837.49669.58326.49669.94901v2.76483c0,.36575-.22237.53386-.49669.37549Z"/><path class="cls-5" d="M44.97577,42.12908l-2.54811-1.47115c-.27431-.15837-.49669-.58326-.49669-.94901v-2.76483c0-.36575.22237-.53386.49669-.37549l2.54811,1.47115c.27431.15837.49669.58326.49669.94901v2.76483c0,.36575-.22237.53386-.49669.37549Z"/><path class="cls-2" d="M53.31886,33.32838l-1.36123-.78591c-.14654-.08461-.26534-.31158-.26534-.50697v-1.477c0-.19539.11879-.28519.26534-.20059l1.36123.78591c.14654.08461.26534.31158.26534.50697v1.477c0,.19539-.11879.28519-.26534.20059Z"/><path class="cls-5" d="M50.1934,38.96253l-1.36123-.78591c-.14654-.08461-.26534-.31158-.26534-.50697v-1.477c0-.19539.11879-.28519.26534-.20059l1.36123.78591c.14654.08461.26534.31158.26534.50697v1.477c0,.19539-.11879.28519-.26534.20059Z"/><path class="cls-2" d="M53.86653,46.73908l-1.6582-.95736c-.17851-.10306-.32322-.37956-.32322-.61757v-1.79923c0-.23801.14471-.34741.32322-.24435l1.6582.95736c.17851.10306.32322.37956.32322.61757v1.79923c0,.23801-.14471.34741-.32322.24435Z"/><path class="cls-2" d="M59.95766,43.2227l-1.82309-1.05256c-.19626-.11331-.35536-.4173-.35536-.67898v-1.97815c0-.26168.1591-.38196.35536-.26865l1.82309,1.05256c.19626.11331.35536.4173.35536.67898v1.97815c0,.26168-.1591.38196-.35536.26865Z"/><path class="cls-5" d="M55.80282,40.16309l-1.41033-.81425c-.15183-.08766-.27491-.32282-.27491-.52526v-1.53028c0-.20243.12308-.29548.27491-.20782l1.41033.81425c.15183.08766.27491.32282.27491.52526v1.53028c0,.20243-.12308.29548-.27491.20782Z"/><path class="cls-2" d="M41.41548,30.25325l-1.81876-1.05006c-.19579-.11304-.35452-.41631-.35452-.67737v-1.97345c0-.26106.15872-.38105.35452-.26801l1.81876,1.05006c.19579.11304.35452.41631.35452.67737v1.97345c0,.26106-.15872.38105-.35452.26801Z"/><path class="cls-2" d="M40.30613,23.40356l-1.02591-.59231c-.11044-.06376-.19997-.23483-.19997-.38209v-1.11317c0-.14726.08953-.21494.19997-.15118l1.02591.59231c.11044.06376.19997.23483.19997.38209v1.11317c0,.14726-.08953.21494-.19997.15118Z"/><path class="cls-2" d="M38.42465,33.37796l-2.01098-1.16104c-.21649-.12499-.39199-.46031-.39199-.74896v-2.18201c0-.28865.1755-.42132.39199-.29633l2.01098,1.16104c.21649.12499.39199.46031.39199.74896v2.18201c0,.28865-.1755.42132-.39199.29633Z"/><path class="cls-2" d="M54.09526,38.34175l-2.01098-1.16104c-.21649-.12499-.39199-.46031-.39199-.74896v-2.18201c0-.28865.1755-.42132.39199-.29633l2.01098,1.16104c.21649.12499.39199.46031.39199.74896v2.18201c0,.28865-.1755.42132-.39199.29633Z"/><path class="cls-5" d="M37.08537,35.8009l-2.44904-1.41395c-.26365-.15222-.47737-.56058-.47737-.91211v-2.65733c0-.35153.21373-.5131.47737-.36089l2.44904,1.41395c.26365.15222.47737.56058.47737.91211v2.65733c0,.35153-.21373.5131-.47737.36089Z"/><path class="cls-5" d="M43.36549,36.10241l-1.93112-1.11493c-.20789-.12003-.37642-.44203-.37642-.71922v-2.09537c0-.27719.16853-.40459.37642-.28457l1.93112,1.11493c.20789.12003.37642.44203.37642.71922v2.09537c0,.27719-.16853.40459-.37642.28457Z"/><path class="cls-2" d="M34.81234,28.74795l-1.93112-1.11493c-.20789-.12003-.37642-.44203-.37642-.71922v-2.09537c0-.27719.16853-.40459.37642-.28457l1.93112,1.11493c.20789.12003.37642.44203.37642.71922v2.09537c0,.27719-.16853.40459-.37642.28457Z"/><path class="cls-2" d="M49.29469,43.12767l-1.61991-.93525c-.17439-.10068-.31576-.37079-.31576-.60331v-1.75768c0-.23252.14137-.33939.31576-.23871l1.61991.93525c.17439.10068.31576.37079.31576.60331v1.75768c0,.23252-.14137.33939-.31576.23871Z"/><path class="cls-2" d="M48.69199,38.77667l-.92241-.53255c-.0993-.05733-.1798-.21114-.1798-.34354v-1.00086c0-.1324.0805-.19326.1798-.13592l.92241.53255c.0993.05733.1798.21114.1798.34354v1.00086c0,.1324-.0805.19326-.1798.13592Z"/><path class="cls-2" d="M43.50214,32.48218l-.92241-.53255c-.0993-.05733-.1798-.21114-.1798-.34354v-1.00086c0-.1324.0805-.19326.1798-.13592l.92241.53255c.0993.05733.1798.21114.1798.34354v1.00086c0,.1324-.0805.19326-.1798.13592Z"/><path class="cls-3" d="M46.06407,35.83661l-.92241-.53255c-.0993-.05733-.1798-.21114-.1798-.34354v-1.00086c0-.1324.0805-.19326.1798-.13592l.92241.53255c.0993.05733.1798.21114.1798.34354v1.00086c0,.1324-.0805.19326-.1798.13592Z"/><path class="cls-3" d="M50.5038,28.23776l-.92241-.53255c-.0993-.05733-.1798-.21114-.1798-.34354v-1.00086c0-.1324.0805-.19326.1798-.13592l.92241.53255c.0993.05733.1798.21114.1798.34354v1.00086c0,.1324-.0805.19326-.1798.13592Z"/><path class="cls-3" d="M35.9244,27.02669l-.92241-.53255c-.0993-.05733-.1798-.21114-.1798-.34354v-1.00086c0-.1324.0805-.19326.1798-.13592l.92241.53255c.0993.05733.1798.21114.1798.34354v1.00086c0,.1324-.0805.19326-.1798.13592Z"/><path class="cls-2" d="M40.25437,37.14569l-.92241-.53255c-.0993-.05733-.1798-.21114-.1798-.34354v-1.00086c0-.1324.0805-.19326.1798-.13592l.92241.53255c.0993.05733.1798.21114.1798.34354v1.00086c0,.1324-.0805.19326-.1798.13592Z"/><path class="cls-3" d="M60.18803,48.75136l-.92241-.53255c-.0993-.05733-.1798-.21114-.1798-.34354v-1.00086c0-.1324.0805-.19326.1798-.13592l.92241.53255c.0993.05733.1798.21114.1798.34354v1.00086c0,.1324-.0805.19326-.1798.13592Z"/><path class="cls-5" d="M61.02802,41.65506l-.92241-.53255c-.0993-.05733-.1798-.21114-.1798-.34354v-1.00086c0-.1324.0805-.19326.1798-.13592l.92241.53255c.0993.05733.1798.21114.1798.34354v1.00086c0,.1324-.0805.19326-.1798.13592Z"/><path class="cls-2" d="M49.99656,32.92602l-1.80165-1.04018c-.19395-.11198-.35118-.41239-.35118-.671v-1.95488c0-.2586.15723-.37747.35118-.26549l1.80165,1.04018c.19395.11198.35118.41239.35118.671v1.95488c0,.2586-.15723.37747-.35118.26549Z"/><ellipse class="cls-7" cx="40.59113" cy="55.69711" rx="9.63849" ry="5.56479"/><circle class="cls-1" cx="40.59113" cy="45.80518" r="12.18729"/><g class="cls-14"><path class="cls-13" d="M28.51198,44.18128s2.93413,5.39486,12.07915,5.39486,12.07968-5.39486,12.07968-5.39486"/><line class="cls-13" x1="40.59113" y1="33.61789" x2="40.59113" y2="57.99247"/><path class="cls-13" d="M36.86282,57.41063c-5.6229-12.20441,3.72831-21.93458,3.72831-21.93458,0,0-14.04158,4.12657-8.86073,18.69557"/><path class="cls-13" d="M44.31945,57.41063c5.6229-12.20441-3.72831-21.93458-3.72831-21.93458,0,0,14.04158,4.12657,8.86073,18.69557"/><path class="cls-13" d="M43.41937,33.94827c-1.16133.24841-2.82823,1.52777-2.82823,1.52777,0,0,5.2659-.70201,7.90682,1.05627,0,0-.32848,4.40888-7.90682,4.40888s-7.90653-4.40888-7.90653-4.40888c2.25865-1.51235,7.90653-1.05627,7.90653-1.05627,0,0-1.66691-1.27937-2.82823-1.52777"/></g><circle class="cls-13" cx="40.59113" cy="45.80518" r="12.18729"/></g></g></svg>