<?xml version="1.0" encoding="UTF-8"?><svg id="Layer_1" xmlns="http://www.w3.org/2000/svg" width="90" height="90" xmlns:xlink="http://www.w3.org/1999/xlink" viewBox="0 0 90 90"><defs><style>.cls-1{fill:url(#linear-gradient-3);}.cls-1,.cls-2,.cls-3{stroke-miterlimit:10;}.cls-1,.cls-2,.cls-3,.cls-4,.cls-5,.cls-6{stroke:#fff;stroke-width:.5px;}.cls-7{opacity:.2;}.cls-7,.cls-8,.cls-9,.cls-10,.cls-11,.cls-12,.cls-13,.cls-14{stroke-width:0px;}.cls-7,.cls-8,.cls-10{fill:#fff;}.cls-2{fill:url(#linear-gradient);}.cls-3{fill:#65c4de;}.cls-8,.cls-9{opacity:.4;}.cls-4{fill:url(#linear-gradient-2);}.cls-4,.cls-5,.cls-6{stroke-linecap:round;stroke-linejoin:round;}.cls-5{fill:url(#linear-gradient-4);}.cls-6{fill:none;}.cls-10{opacity:.3;}.cls-11{fill:#48accb;}.cls-12{fill:#548ea7;}.cls-13{fill:#88e1f6;}.cls-14{fill:#9afbff;}</style><linearGradient id="linear-gradient" x1="48.56068" y1="26.09481" x2="46.05096" y2="35.55451" gradientUnits="userSpaceOnUse"><stop offset="0" stop-color="#88e1f6"/><stop offset=".30057" stop-color="#78d4eb"/><stop offset=".8785" stop-color="#51b3d1"/><stop offset="1" stop-color="#48accb"/></linearGradient><linearGradient id="linear-gradient-2" x1="44.05362" y1="15.53305" x2="65.08956" y2="49.13591" gradientUnits="userSpaceOnUse"><stop offset=".36282" stop-color="#88e1f6"/><stop offset=".52051" stop-color="#48accb"/><stop offset=".55512" stop-color="#69c7e1"/><stop offset=".58518" stop-color="#7fdaf0"/><stop offset=".6044" stop-color="#88e1f6"/><stop offset=".75922" stop-color="#88e1f6"/><stop offset=".80337" stop-color="#7cd7ee"/><stop offset=".88137" stop-color="#5ebeda"/><stop offset=".93174" stop-color="#48accb"/></linearGradient><linearGradient id="linear-gradient-3" x1="34.03454" y1="38.05017" x2="36.37104" y2="52.98346" xlink:href="#linear-gradient"/><linearGradient id="linear-gradient-4" x1="34.58077" y1="31.52344" x2="50.22517" y2="56.51385" xlink:href="#linear-gradient-2"/></defs><path class="cls-9" d="M43.86171,86.1518l-34.15266-19.71805c-.62879-.36303-.62879-.95162,0-1.31465l34.1522-19.71778c.62879-.36303,1.64826-.36303,2.27705,0l34.15266,19.71805c.62879.36303.62879.95162,0,1.31465l-34.1522,19.71778c-.62879.36303-1.64826.36303-2.27705,0Z"/><polygon class="cls-13" points="45.00011 71.98235 9.79387 51.65602 44.99989 31.32982 80.20613 51.65615 45.00011 71.98235"/><polygon class="cls-14" points="9.79387 51.65602 9.79387 58.60601 45.00011 78.93234 45.00011 71.98235 9.79387 51.65602"/><polygon class="cls-11" points="80.20613 51.65615 80.20613 58.60613 45.00011 78.93234 45.00011 71.98235 80.20613 51.65615"/><path class="cls-12" d="M59.40819,58.8938l-22.93426-13.2411c-.82088-.47394-.71794-1.30177.22993-1.84902l2.71652-1.56839c.94786-.54725,2.38171-.60668,3.20259-.13275l22.93426,13.2411c.82088.47394.71794,1.30177-.22993,1.84902l-2.71652,1.56839c-.94786.54725-2.38171.60668-3.20259.13275Z"/><path class="cls-2" d="M55.55562,34.58366c-.49288-.28456-.97357-.50358-1.43984-.66774-1.27735-5.43771-5.07859-11.04263-9.57062-13.63611-5.01562-2.89577-9.15917-1.03251-9.90035,4.09148-.04862-.02929-.09585-.06379-.14474-.09202-3.68893-2.1298-6.67941-.40326-6.67941,3.85631,0,4.25958,2.99049,9.43917,6.67941,11.56897l21.05555,12.15643c4.1318,2.3855,7.48135.45172,7.48135-4.31931,0-4.77103-3.34955-10.57253-7.48135-12.95802Z"/><path class="cls-3" d="M34.50008,24.27924c.04891.02824.09613.06277.14472.09205.26281-1.81684.95982-3.21392,1.96538-4.14408-.4276.04671-.82839.1556-1.1881.34009l-.00311-.00641-.07152.04165c-.04612.0252-.09127.05182-.13603.07929l-5.10163,2.97243c1.1745-.50773,2.70761-.3465,4.3903.62498Z"/><path class="cls-4" d="M68.53933,44.36493c0-4.77107-3.3495-10.57257-7.48134-12.95804-.49284-.28457-.97356-.50359-1.43983-.66774-1.27737-5.43771-5.07857-11.04267-9.57058-13.63614-2.73087-1.57665-5.1979-1.73296-7.00327-.72986l-.00376-.00965-5.391,3.11682.01574.00609c1.79398-.92938,4.21015-.748,6.87987.79341,4.492,2.59347,8.29327,8.19837,9.57064,13.63608.46628.16415.94693.38317,1.43983.66774,4.13177,2.38553,7.48134,8.18704,7.48134,12.95804,0,2.36364-.82379,4.02812-2.15589,4.81881l.00065.0033,5.45494-3.15012c.00732-.00421.01464-.00842.02196-.0127l.01859-.01075-.00168-.00097c1.33696-.78874,2.1638-2.45575,2.1638-4.82432Z"/><path class="cls-7" d="M44.40798,30.24139l-3.55329-2.05149c-.38252-.22085-.69262-.81334-.69262-1.32337v-3.8555c0-.51003.3101-.74446.69262-.52361l3.55329,2.05149c.38252.22085.69262.81334.69262,1.32337v3.8555c0,.51003-.3101.74446-.69262.52361Z"/><path class="cls-10" d="M47.08832,35.55292l-2.98658-1.72431c-.32151-.18563-.58215-.68363-.58215-1.11231v-3.2406c0-.42869.26064-.62573.58215-.4401l2.98658,1.72431c.32151.18563.58215.68363.58215,1.11231v3.2406c0,.42869-.26064.62573-.58215.4401Z"/><path class="cls-10" d="M54.49445,47.61641l-2.54811-1.47115c-.27431-.15837-.49669-.58326-.49669-.94901v-2.76483c0-.36575.22237-.53386.49669-.37549l2.54811,1.47115c.27431.15837.49669.58326.49669.94901v2.76483c0,.36575-.22237.53386-.49669.37549Z"/><path class="cls-10" d="M43.36784,42.76521l-2.54811-1.47115c-.27431-.15837-.49669-.58326-.49669-.94901v-2.76483c0-.36575.22237-.53386.49669-.37549l2.54811,1.47115c.27431.15837.49669.58326.49669.94901v2.76483c0,.36575-.22237.53386-.49669.37549Z"/><path class="cls-7" d="M51.71093,33.96452l-1.36123-.78591c-.14654-.08461-.26534-.31158-.26534-.50697v-1.477c0-.19539.11879-.28519.26534-.20059l1.36123.78591c.14654.08461.26534.31158.26534.50697v1.477c0,.19539-.11879.28519-.26534.20059Z"/><path class="cls-10" d="M48.58548,39.59866l-1.36123-.78591c-.14654-.08461-.26534-.31158-.26534-.50697v-1.477c0-.19539.11879-.28519.26534-.20059l1.36123.78591c.14654.08461.26534.31158.26534.50697v1.477c0,.19539-.11879.28519-.26534.20059Z"/><path class="cls-7" d="M52.2586,47.37522l-1.6582-.95736c-.17851-.10306-.32322-.37956-.32322-.61757v-1.79923c0-.23801.14471-.34741.32322-.24435l1.6582.95736c.17851.10306.32322.37956.32322.61757v1.79923c0,.23801-.14471.34741-.32322.24435Z"/><path class="cls-7" d="M58.34973,43.85884l-1.82309-1.05256c-.19626-.11331-.35536-.4173-.35536-.67898v-1.97815c0-.26168.1591-.38196.35536-.26865l1.82309,1.05256c.19626.11331.35536.4173.35536.67898v1.97815c0,.26168-.1591.38196-.35536.26865Z"/><path class="cls-10" d="M54.19489,40.79923l-1.41033-.81425c-.15183-.08766-.27491-.32282-.27491-.52526v-1.53028c0-.20243.12308-.29548.27491-.20782l1.41033.81425c.15183.08766.27491.32282.27491.52526v1.53028c0,.20243-.12308.29548-.27491.20782Z"/><path class="cls-7" d="M39.80755,30.88939l-1.81876-1.05006c-.19579-.11304-.35452-.41631-.35452-.67737v-1.97345c0-.26106.15872-.38105.35452-.26801l1.81876,1.05006c.19579.11304.35452.41631.35452.67737v1.97345c0,.26106-.15872.38105-.35452.26801Z"/><path class="cls-7" d="M38.6982,24.0397l-1.02591-.59231c-.11044-.06376-.19997-.23483-.19997-.38209v-1.11317c0-.14726.08953-.21494.19997-.15118l1.02591.59231c.11044.06376.19997.23483.19997.38209v1.11317c0,.14726-.08953.21494-.19997.15118Z"/><path class="cls-7" d="M36.81672,34.0141l-2.01098-1.16104c-.21649-.12499-.39199-.46031-.39199-.74896v-2.18201c0-.28865.1755-.42132.39199-.29633l2.01098,1.16104c.21649.12499.39199.46031.39199.74896v2.18201c0,.28865-.1755.42132-.39199.29633Z"/><path class="cls-7" d="M52.48733,38.97789l-2.01098-1.16104c-.21649-.12499-.39199-.46031-.39199-.74896v-2.18201c0-.28865.1755-.42132.39199-.29633l2.01098,1.16104c.21649.12499.39199.46031.39199.74896v2.18201c0,.28865-.1755.42132-.39199.29633Z"/><path class="cls-10" d="M35.47744,36.43704l-2.44904-1.41395c-.26365-.15222-.47737-.56058-.47737-.91211v-2.65733c0-.35153.21373-.5131.47737-.36089l2.44904,1.41395c.26365.15222.47737.56058.47737.91211v2.65733c0,.35153-.21373.5131-.47737.36089Z"/><path class="cls-10" d="M41.75756,36.73854l-1.93112-1.11493c-.20789-.12003-.37642-.44203-.37642-.71922v-2.09537c0-.27719.16853-.40459.37642-.28457l1.93112,1.11493c.20789.12003.37642.44203.37642.71922v2.09537c0,.27719-.16853.40459-.37642.28457Z"/><path class="cls-7" d="M33.20441,29.38408l-1.93112-1.11493c-.20789-.12003-.37642-.44203-.37642-.71922v-2.09537c0-.27719.16853-.40459.37642-.28457l1.93112,1.11493c.20789.12003.37642.44203.37642.71922v2.09537c0,.27719-.16853.40459-.37642.28457Z"/><path class="cls-7" d="M47.68676,43.76381l-1.61991-.93525c-.17439-.10068-.31576-.37079-.31576-.60331v-1.75768c0-.23252.14137-.33939.31576-.23871l1.61991.93525c.17439.10068.31576.37079.31576.60331v1.75768c0,.23252-.14137.33939-.31576.23871Z"/><path class="cls-7" d="M47.08406,39.41281l-.92241-.53255c-.0993-.05733-.1798-.21114-.1798-.34354v-1.00086c0-.1324.0805-.19326.1798-.13592l.92241.53255c.0993.05733.1798.21114.1798.34354v1.00086c0,.1324-.0805.19326-.1798.13592Z"/><path class="cls-7" d="M41.89421,33.11832l-.92241-.53255c-.0993-.05733-.1798-.21114-.1798-.34354v-1.00086c0-.1324.0805-.19326.1798-.13592l.92241.53255c.0993.05733.1798.21114.1798.34354v1.00086c0,.1324-.0805.19326-.1798.13592Z"/><path class="cls-8" d="M44.45614,36.47275l-.92241-.53255c-.0993-.05733-.1798-.21114-.1798-.34354v-1.00086c0-.1324.0805-.19326.1798-.13592l.92241.53255c.0993.05733.1798.21114.1798.34354v1.00086c0,.1324-.0805.19326-.1798.13592Z"/><path class="cls-8" d="M48.89588,28.87389l-.92241-.53255c-.0993-.05733-.1798-.21114-.1798-.34354v-1.00086c0-.1324.0805-.19326.1798-.13592l.92241.53255c.0993.05733.1798.21114.1798.34354v1.00086c0,.1324-.0805.19326-.1798.13592Z"/><path class="cls-8" d="M34.31647,27.66282l-.92241-.53255c-.0993-.05733-.1798-.21114-.1798-.34354v-1.00086c0-.1324.0805-.19326.1798-.13592l.92241.53255c.0993.05733.1798.21114.1798.34354v1.00086c0,.1324-.0805.19326-.1798.13592Z"/><path class="cls-7" d="M38.64645,37.78183l-.92241-.53255c-.0993-.05733-.1798-.21114-.1798-.34354v-1.00086c0-.1324.0805-.19326.1798-.13592l.92241.53255c.0993.05733.1798.21114.1798.34354v1.00086c0,.1324-.0805.19326-.1798.13592Z"/><path class="cls-8" d="M58.5801,49.3875l-.92241-.53255c-.0993-.05733-.1798-.21114-.1798-.34354v-1.00086c0-.1324.0805-.19326.1798-.13592l.92241.53255c.0993.05733.1798.21114.1798.34354v1.00086c0,.1324-.0805.19326-.1798.13592Z"/><path class="cls-10" d="M59.42009,42.29119l-.92241-.53255c-.0993-.05733-.1798-.21114-.1798-.34354v-1.00086c0-.1324.0805-.19326.1798-.13592l.92241.53255c.0993.05733.1798.21114.1798.34354v1.00086c0,.1324-.0805.19326-.1798.13592Z"/><path class="cls-7" d="M48.38863,33.56216l-1.80165-1.04018c-.19395-.11198-.35118-.41239-.35118-.671v-1.95488c0-.2586.15723-.37747.35118-.26549l1.80165,1.04018c.19395.11198.35118.41239.35118.671v1.95488c0,.2586-.15723.37747-.35118.26549Z"/><path class="cls-12" d="M42.82583,63.37904l-19.36887-11.18262c-.82088-.47394-.71794-1.30177.22993-1.84902l2.71652-1.56839c.94786-.54725,2.38171-.60668,3.20259-.13275l19.36887,11.18262c.82088.47394.71794,1.30177-.22993,1.84902l-2.71652,1.56839c-.94786.54725-2.38171.60668-3.20259.13275Z"/><path class="cls-1" d="M43.13479,45.69136c-.36655-.21163-.72404-.37451-1.0708-.4966-.94997-4.04402-3.77694-8.21239-7.11766-10.14116-3.73011-2.15358-6.81167-.76787-7.36288,3.04283-.03616-.02178-.07128-.04744-.10765-.06843-2.74345-1.58393-4.96747-.29991-4.96747,2.86794s2.22402,7.0199,4.96747,8.60383l15.65899,9.04072c3.07282,1.77409,5.56387.33595,5.56387-3.21226,0-3.54821-2.49105-7.86278-5.56387-9.63687Z"/><path class="cls-3" d="M27.47581,38.02798c.03637.021.07149.04668.10762.06846.19545-1.35118.71382-2.39019,1.46165-3.08195-.31801.03473-.61607.11572-.88359.25292l-.00231-.00477-.05319.03098c-.0343.01874-.06788.03854-.10117.05897l-3.79408,2.21059c.87347-.3776,2.01365-.25769,3.26506.4648Z"/><path class="cls-5" d="M52.79076,52.96568c0-3.54824-2.49102-7.86281-5.56386-9.63688-.36652-.21164-.72403-.37452-1.0708-.4966-.94998-4.04401-3.77693-8.21242-7.11763-10.14118-2.03094-1.17255-3.86567-1.2888-5.20833-.5428l-.00279-.00718-4.00928,2.31798.01171.00453c1.33418-.69118,3.13108-.55629,5.11655.59006,3.3407,1.92876,6.1677,6.09712,7.11767,10.14113.34677.12208.70423.28496,1.0708.4966,3.07279,1.77412,5.56386,6.08869,5.56386,9.63688,0,1.75784-.61265,2.99571-1.60334,3.58374l.00048.00246,4.05683-2.34274c.00544-.00313.01089-.00626.01633-.00944l.01383-.008-.00125-.00072c.9943-.58659,1.60921-1.82634,1.60921-3.58784Z"/><line class="cls-6" x1="54.11578" y1="33.91592" x2="59.61815" y2="30.73915"/><line class="cls-6" x1="42.06399" y1="45.19476" x2="46.15609" y2="42.83221"/><path class="cls-7" d="M34.703,42.47095l-2.75936-1.59312c-.29705-.1715-.53786-.63161-.53786-1.02769v-2.99405c0-.39607.24081-.57812.53786-.40662l2.75936,1.59312c.29705.1715.53786.63161.53786,1.02769v2.99405c0,.39607-.24081.57812-.53786.40662Z"/><path class="cls-10" d="M36.78446,46.59569l-2.31928-1.33903c-.24968-.14415-.45208-.53088-.45208-.86378v-2.51653c0-.3329.2024-.48592.45208-.34177l2.31928,1.33903c.24968.14415.45208.53088.45208.86378v2.51653c0,.3329-.2024.48592-.45208.34177Z"/><path class="cls-10" d="M42.5358,55.96377l-1.97877-1.14244c-.21302-.12299-.38571-.45294-.38571-.73697v-2.14707c0-.28403.17269-.41458.38571-.29159l1.97877,1.14244c.21302.12299.38571.45294.38571.73697v2.14707c0,.28403-.17269.41458-.38571.29159Z"/><path class="cls-10" d="M33.89527,52.1965l-1.97877-1.14244c-.21302-.12299-.38571-.45294-.38571-.73697v-2.14707c0-.28403.17269-.41458.38571-.29159l1.97877,1.14244c.21302.12299.38571.45294.38571.73697v2.14707c0,.28403-.17269.41458-.38571.29159Z"/><path class="cls-7" d="M40.37422,45.36219l-1.05708-.61031c-.1138-.0657-.20605-.24197-.20605-.3937v-1.14699c0-.15173.09225-.22147.20605-.15577l1.05708.61031c.1138.0657.20605.24197.20605.3937v1.14699c0,.15173-.09225.22147-.20605.15577Z"/><path class="cls-10" d="M37.9471,49.73747l-1.05708-.61031c-.1138-.0657-.20605-.24197-.20605-.3937v-1.14699c0-.15173.09225-.22147.20605-.15577l1.05708.61031c.1138.0657.20605.24197.20605.3937v1.14699c0,.15173-.09225.22147-.20605.15577Z"/><path class="cls-7" d="M40.79952,55.77647l-1.2877-.74345c-.13862-.08003-.251-.29475-.251-.47958v-1.39722c0-.18483.11238-.26979.251-.18975l1.2877.74345c.13862.08003.251.29475.251.47958v1.39722c0,.18483-.11238.26979-.251.18975Z"/><path class="cls-7" d="M45.52968,53.04577l-1.41575-.81738c-.15241-.08799-.27596-.32406-.27596-.52728v-1.53616c0-.20321.12355-.29662.27596-.20862l1.41575.81738c.15241.08799.27596.32406.27596.52728v1.53616c0,.20321-.12355.29662-.27596.20862Z"/><path class="cls-10" d="M42.30317,50.66979l-1.09521-.63232c-.1179-.06807-.21348-.25069-.21348-.4079v-1.18836c0-.1572.09558-.22946.21348-.16139l1.09521.63232c.1179.06807.21348.25069.21348.4079v1.18836c0,.1572-.09558.22946-.21348.16139Z"/><path class="cls-7" d="M31.13047,42.97415l-1.41238-.81544c-.15205-.08778-.27531-.32329-.27531-.52602v-1.53251c0-.20273.12326-.29591.27531-.20813l1.41238.81544c.15205.08778.27531.32329.27531.52602v1.53251c0,.20273-.12326.29591-.27531.20813Z"/><path class="cls-7" d="M30.26899,37.65493l-.79669-.45997c-.08577-.04952-.15529-.18236-.15529-.29672v-.86445c0-.11435.06953-.16692.15529-.1174l.79669.45997c.08577.04952.15529.18236.15529.29672v.86445c0,.11435-.06953.16692-.15529.1174Z"/><path class="cls-7" d="M28.8079,45.40069l-1.56165-.90162c-.16812-.09706-.3044-.35746-.3044-.58162v-1.69447c0-.22416.13629-.32719.3044-.23012l1.56165.90162c.16812.09706.3044.35746.3044.58162v1.69447c0,.22416-.13629.32719-.3044.23012Z"/><path class="cls-7" d="M40.97714,49.2554l-1.56165-.90162c-.16812-.09706-.3044-.35746-.3044-.58162v-1.69447c0-.22416.13629-.32719.3044-.23012l1.56165.90162c.16812.09706.3044.35746.3044.58162v1.69447c0,.22416-.13629.32719-.3044.23012Z"/><path class="cls-10" d="M27.76786,47.28227l-1.90184-1.09803c-.20474-.11821-.37071-.43533-.37071-.70831v-2.06359c0-.27298.16597-.39846.37071-.28025l1.90184,1.09803c.20474.11821.37071.43533.37071.70831v2.06359c0,.27298-.16597.39846-.37071.28025Z"/><path class="cls-10" d="M32.64478,47.5164l-1.49964-.86582c-.16144-.09321-.29231-.34327-.29231-.55852v-1.62719c0-.21525.13087-.31419.29231-.22099l1.49964.86582c.16144.09321.29231.34327.29231.55852v1.62719c0,.21525-.13087.31419-.29231.22099Z"/><path class="cls-7" d="M26.00271,41.80519l-1.49964-.86582c-.16144-.09321-.29231-.34327-.29231-.55852v-1.62719c0-.21525.13087-.31419.29231-.22099l1.49964.86582c.16144.09321.29231.34327.29231.55852v1.62719c0,.21525-.13087.31419-.29231.22099Z"/><path class="cls-7" d="M37.24919,52.97197l-1.25796-.72628c-.13542-.07819-.24521-.28795-.24521-.46851v-1.36495c0-.18056.10978-.26356.24521-.18537l1.25796.72628c.13542.07819.24521.28795.24521.46851v1.36495c0,.18056-.10978.26356-.24521.18537Z"/><path class="cls-7" d="M36.78115,49.59314l-.71631-.41356c-.07711-.04452-.13963-.16396-.13963-.26678v-.77723c0-.10282.06251-.15008.13963-.10555l.71631.41356c.07711.04452.13963.16396.13963.26678v.77723c0,.10282-.06251.15008-.13963.10555Z"/><path class="cls-7" d="M32.7509,44.70506l-.71631-.41356c-.07711-.04452-.13963-.16396-.13963-.26678v-.77723c0-.10282.06251-.15008.13963-.10555l.71631.41356c.07711.04452.13963.16396.13963.26678v.77723c0,.10282-.06251.15008-.13963.10555Z"/><path class="cls-8" d="M34.7404,47.31l-.71631-.41356c-.07711-.04452-.13963-.16396-.13963-.26678v-.77723c0-.10282.06251-.15008.13963-.10555l.71631.41356c.07711.04452.13963.16396.13963.26678v.77723c0,.10282-.06251.15008-.13963.10555Z"/><path class="cls-8" d="M38.18815,41.40899l-.71631-.41356c-.07711-.04452-.13963-.16396-.13963-.26678v-.77723c0-.10282.06251-.15008.13963-.10555l.71631.41356c.07711.04452.13963.16396.13963.26678v.77723c0,.10282-.06251.15008-.13963.10555Z"/><path class="cls-8" d="M26.8663,40.46852l-.71631-.41356c-.07711-.04452-.13963-.16396-.13963-.26678v-.77723c0-.10282.06251-.15008.13963-.10555l.71631.41356c.07711.04452.13963.16396.13963.26678v.77723c0,.10282-.06251.15008-.13963.10555Z"/><path class="cls-7" d="M30.2288,48.32658l-.71631-.41356c-.07711-.04452-.13963-.16396-.13963-.26678v-.77723c0-.10282.06251-.15008.13963-.10555l.71631.41356c.07711.04452.13963.16396.13963.26678v.77723c0,.10282-.06251.15008-.13963.10555Z"/><path class="cls-8" d="M45.70857,57.33913l-.71631-.41356c-.07711-.04452-.13963-.16396-.13963-.26678v-.77723c0-.10282.06251-.15008.13963-.10555l.71631.41356c.07711.04452.13963.16396.13963.26678v.77723c0,.10282-.06251.15008-.13963.10555Z"/><path class="cls-10" d="M46.36088,51.8284l-.71631-.41356c-.07711-.04452-.13963-.16396-.13963-.26678v-.77723c0-.10282.06251-.15008.13963-.10555l.71631.41356c.07711.04452.13963.16396.13963.26678v.77723c0,.10282-.06251.15008-.13963.10555Z"/><path class="cls-7" d="M37.79424,45.04973l-1.39909-.80777c-.15062-.08696-.27272-.32025-.27272-.52107v-1.51809c0-.20082.1221-.29313.27272-.20617l1.39909.80777c.15062.08696.27272.32025.27272.52107v1.51809c0,.20082-.1221.29313-.27272.20617Z"/></svg>