<?xml version="1.0" encoding="UTF-8"?><svg id="Layer_1" xmlns="http://www.w3.org/2000/svg" width="90" height="90" xmlns:xlink="http://www.w3.org/1999/xlink" viewBox="0 0 90 90"><defs><style>.cls-1{clip-path:url(#clippath);}.cls-2,.cls-3,.cls-4,.cls-5,.cls-6,.cls-7,.cls-8,.cls-9,.cls-10{stroke-width:0px;}.cls-2,.cls-11{fill:none;}.cls-12{opacity:.1;}.cls-3{opacity:.2;}.cls-3,.cls-4,.cls-6{fill:#fff;}.cls-13{fill:url(#linear-gradient);}.cls-13,.cls-14,.cls-15{stroke-width:.5px;}.cls-13,.cls-14,.cls-15,.cls-11{stroke:#fff;}.cls-13,.cls-14,.cls-11{stroke-miterlimit:10;}.cls-14{fill:#65c4de;}.cls-4,.cls-5{opacity:.4;}.cls-15{fill:url(#linear-gradient-2);stroke-linecap:round;stroke-linejoin:round;}.cls-6{opacity:.3;}.cls-7{fill:#48accb;}.cls-8{fill:#548ea7;}.cls-9{fill:#88e1f6;}.cls-10{fill:#9afbff;}.cls-11{stroke-width:.9306px;}</style><clipPath id="clippath"><rect class="cls-2" x="89.88781" y="231.87487" width="442.99958" height="300"/></clipPath><linearGradient id="linear-gradient" x1="38.00794" y1="30.71041" x2="41.24001" y2="51.36755" gradientTransform="translate(-4.85401 -1.52161)" gradientUnits="userSpaceOnUse"><stop offset="0" stop-color="#88e1f6"/><stop offset=".30057" stop-color="#78d4eb"/><stop offset=".8785" stop-color="#51b3d1"/><stop offset="1" stop-color="#48accb"/></linearGradient><linearGradient id="linear-gradient-2" x1="40.83055" y1="20.38834" x2="62.58945" y2="55.14606" gradientTransform="translate(-4.85401 -1.52161)" gradientUnits="userSpaceOnUse"><stop offset=".36282" stop-color="#88e1f6"/><stop offset=".52051" stop-color="#48accb"/><stop offset=".55512" stop-color="#69c7e1"/><stop offset=".58518" stop-color="#7fdaf0"/><stop offset=".6044" stop-color="#88e1f6"/><stop offset=".75922" stop-color="#88e1f6"/><stop offset=".80337" stop-color="#7cd7ee"/><stop offset=".88137" stop-color="#5ebeda"/><stop offset=".93174" stop-color="#48accb"/></linearGradient></defs><g class="cls-1"><g class="cls-12"><line class="cls-11" x1="63.00013" y1="88.27011" x2="416.77549" y2="292.52241"/><line class="cls-11" x1="63.00013" y1="47.61762" x2="416.77549" y2="251.86992"/><line class="cls-11" x1="416.77549" y1="88.27011" x2="63.00013" y2="292.52241"/><line class="cls-11" x1="416.77549" y1="47.61762" x2="63.00013" y2="251.86992"/></g></g><path class="cls-5" d="M43.86171,86.1518l-34.15266-19.71805c-.62879-.36303-.62879-.95162,0-1.31465l34.1522-19.71778c.62879-.36303,1.64826-.36303,2.27705,0l34.15266,19.71805c.62879.36303.62879.95162,0,1.31465l-34.1522,19.71778c-.62879.36303-1.64826.36303-2.27705,0Z"/><polygon class="cls-9" points="45.00011 71.98235 9.79387 51.65602 44.99989 31.32982 80.20613 51.65615 45.00011 71.98235"/><polygon class="cls-10" points="9.79387 51.65602 9.79387 58.60601 45.00011 78.93234 45.00011 71.98235 9.79387 51.65602"/><polygon class="cls-7" points="80.20613 51.65615 80.20613 58.60613 45.00011 78.93234 45.00011 71.98235 80.20613 51.65615"/><path class="cls-8" d="M47.04907,62.87699l-20.77327-11.99346c-1.62528-.93836-1.42146-2.57742.45526-3.66094l5.85694-3.38151c1.87672-1.08352,4.71565-1.2012,6.34093-.26284l20.77327,11.99346c1.62528.93836,1.42146,2.57742-.45526,3.66094l-5.85694,3.38151c-1.87672,1.08352-4.71565,1.2012-6.34093.26284Z"/><path class="cls-13" d="M45.74222,39.75883c-.50705-.29275-1.00156-.51806-1.48124-.68694-1.31411-5.59406-5.22468-11.36015-9.84588-14.0282-5.15985-2.97904-9.42253-1.06221-10.18498,4.2091-.05002-.03013-.0986-.06562-.14891-.09466-3.795-2.19105-6.87147-.41487-6.87144,3.96718s3.07653,9.71058,6.87153,11.90162l21.66102,12.50599c4.25062,2.45409,7.69646.46473,7.69643-4.44348s-3.44592-10.87652-7.69653-13.33061Z"/><path class="cls-14" d="M24.08123,29.15809c.05031.02906.0989.06458.14888.0947.27035-1.86908.9874-3.30633,2.02187-4.26323-.4399.04805,3.40205-2.23551,3.03199-2.04571l-4.25745,2.38898,4.18068-2.35273c-.04745.02592-.0939.05331-.13995.08157l-9.50255,5.45346c1.20827-.52233,2.78546-.35646,4.51654.64296Z"/><path class="cls-15" d="M63.35355,47.42579c-.00003-4.90825-3.44587-10.87656-7.69652-13.33063-.50701-.29276-1.00155-.51807-1.48124-.68694-1.31413-5.59406-5.22466-11.36018-9.84584-14.02823-2.8094-1.62198-5.34736-1.78279-7.20464-.75086l-.00387-.00993-9.80024,5.602.01619.00626c1.84555-.9561,4.3312-.7695,7.07769.81623,4.62117,2.66805,8.53177,8.43411,9.8459,14.02817.47968.16887.97416.39418,1.48124.68694,4.25058,2.45413,7.69649,8.42245,7.69652,13.33063.00001,2.4316-.84745,4.14394-2.21785,4.95736l.00067.0034,9.86601-5.63626c.00753-.00433.01506-.00866.02259-.01306l.01913-.01106-.00173-.001c1.3754-.81142,2.226-2.52636,2.22598-4.96302Z"/><path class="cls-3" d="M34.27404,35.29169l-3.65547-2.11049c-.39352-.2272-.71254-.83673-.71254-1.36143l-.00002-3.96636c0-.52469.31901-.76586.71253-.53866l3.65547,2.11049c.39352.2272.71254.83673.71254,1.36143l.00002,3.96636c0,.52469-.31901.76586-.71253.53866Z"/><path class="cls-6" d="M37.03147,40.75595l-3.07247-1.77389c-.33076-.19096-.5989-.70328-.5989-1.14429l-.00002-3.33377c0-.44101.26813-.64372.59889-.45275l3.07247,1.77389c.33076.19096.5989.70328.5989,1.14429l.00002,3.33377c0,.44101-.26813.64372-.59889.45275Z"/><path class="cls-6" d="M44.65062,53.1663l-2.62138-1.51346c-.2822-.16293-.51097-.60003-.51097-.9763l-.00002-2.84433c0-.37627.22876-.54921.51096-.38628l2.62138,1.51346c.2822.16293.51097.60003.51097.9763l.00002,2.84433c0,.37627-.22876.54921-.51096.38628Z"/><path class="cls-6" d="M33.20407,48.1756l-2.62138-1.51346c-.2822-.16293-.51097-.60003-.51097-.9763l-.00002-2.84433c0-.37627.22876-.54921.51096-.38628l2.62138,1.51346c.2822.16293.51097.60003.51097.9763l.00002,2.84433c0,.37627-.22876.54921-.51096.38628Z"/><path class="cls-3" d="M41.78699,39.12188l-1.40037-.80851c-.15075-.08704-.27297-.32054-.27297-.52155v-1.51947c0-.20101.1222-.29339.27295-.20636l1.40037.80851c.15075.08704.27297.32054.27297.52155v1.51947c0,.20101-.1222.29339-.27295.20636Z"/><path class="cls-6" d="M38.5717,44.91801l-1.40037-.80851c-.15075-.08704-.27297-.32054-.27297-.52155v-1.51947c0-.20101.1222-.29339.27295-.20636l1.40037.80851c.15075.08704.27297.32054.27297.52155v1.51947c0,.20101-.1222.29339-.27295.20636Z"/><path class="cls-3" d="M42.35049,52.91817l-1.70588-.98489c-.18364-.10603-.33252-.39047-.33252-.63533v-1.85096c-.00001-.24486.14886-.3574.3325-.25137l1.70588.98489c.18364.10603.33252.39047.33252.63533v1.85096c.00001.24486-.14886.3574-.3325.25137Z"/><path class="cls-3" d="M48.61673,49.3007l-1.87551-1.08283c-.2019-.11657-.36558-.4293-.36558-.69851v-2.03502c-.00001-.26921.16366-.39294.36557-.27637l1.87551,1.08283c.2019.11657.36558.4293.36558.69851v2.03502c.00001.26921-.16366.39294-.36557.27637Z"/><path class="cls-6" d="M44.34241,46.15311l-1.45088-.83767c-.15619-.09018-.28281-.3321-.28281-.54036v-1.57428c-.00001-.20826.12661-.30398.2828-.2138l1.45088.83767c.15619.09018.28281.3321.28281.54036v1.57428c.00001.20826-.12661.30398-.2828.2138Z"/><path class="cls-3" d="M29.54134,35.95831l-1.87106-1.08026c-.20143-.11629-.36471-.42828-.36472-.69685v-2.03019c-.00001-.26857.16327-.39201.3647-.27571l1.87106,1.08026c.20143.11629.36471.42828.36472.69685v2.03019c.00001.26857-.16327.39201-.3647.27571Z"/><path class="cls-3" d="M28.40005,28.91167l-1.05541-.60934c-.11362-.0656-.20573-.24158-.20573-.39307v-1.14518c0-.15149.0921-.22112.20572-.15552l1.05541.60934c.11362.0656.20573.24158.20573.39307v1.14518c0,.15149-.0921.22112-.20572.15552Z"/><path class="cls-3" d="M26.46454,39.17285l-2.0688-1.19442c-.22271-.12858-.40326-.47355-.40326-.7705v-2.24475c-.00001-.29695.18053-.43344.40324-.30485l2.0688,1.19442c.22271.12858.40326.47355.40326.7705v2.24475c.00001.29695-.18053.43344-.40324.30485Z"/><path class="cls-3" d="M42.58574,44.27939l-2.0688-1.19442c-.22271-.12858-.40326-.47355-.40326-.7705v-2.24475c-.00001-.29695.18053-.43344.40324-.30485l2.0688,1.19442c.22271.12858.40326.47355.40326.7705v2.24475c.00001.29695-.18053.43344-.40324.30485Z"/><path class="cls-6" d="M25.08677,41.66546l-2.51946-1.45461c-.27123-.15659-.4911-.5767-.49111-.93834l-.00002-2.73374c0-.36164.21987-.52786.4911-.37126l2.51946,1.45461c.27123.15659.4911.5767.49111.93834l.00002,2.73374c0,.36164-.21987.52786-.4911.37126Z"/><path class="cls-6" d="M31.54746,41.97564l-1.98665-1.147c-.21387-.12348-.38725-.45474-.38725-.7399v-2.15561c-.00001-.28516.17336-.41623.38723-.29275l1.98665,1.147c.21387.12348.38725.45474.38725.7399v2.15561c.00001.28516-.17336.41623-.38723.29275Z"/><path class="cls-3" d="M22.74834,34.40971l-1.98665-1.147c-.21387-.12348-.38725-.45474-.38725-.7399v-2.15561c-.00001-.28516.17336-.41623.38723-.29275l1.98665,1.147c.21387.12348.38725.45474.38725.7399v2.15561c.00001.28516-.17336.41623-.38723.29275Z"/><path class="cls-3" d="M37.64717,49.20291l-1.66649-.96215c-.1794-.10358-.32484-.38146-.32484-.62066v-1.80822c-.00001-.2392.14542-.34915.32482-.24557l1.66649.96215c.1794.10358.32484.38146.32484.62066v1.80822c.00001.2392-.14542.34915-.32482.24557Z"/><path class="cls-3" d="M37.02712,44.72681l-.94893-.54787c-.10216-.05898-.18497-.21721-.18497-.35342v-1.02964c0-.13621.08281-.19881.18496-.13983l.94893.54787c.10216.05898.18497.21721.18497.35342v1.02964c0,.13621-.08281.19881-.18496.13983Z"/><path class="cls-3" d="M31.68801,38.25133l-.94893-.54787c-.10216-.05898-.18497-.21721-.18497-.35342v-1.02964c0-.13621.08281-.19881.18496-.13983l.94893.54787c.10216.05898.18497.21721.18497.35342v1.02964c0,.13621-.08281.19881-.18496.13983Z"/><path class="cls-4" d="M34.32362,41.70221l-.94893-.54787c-.10216-.05898-.18497-.21721-.18497-.35342v-1.02964c0-.13621.08281-.19881.18496-.13983l.94893.54787c.10216.05898.18497.21721.18497.35342v1.02964c0,.13621-.08281.19881-.18496.13983Z"/><path class="cls-4" d="M38.89097,33.88488l-.94893-.54787c-.10216-.05898-.18497-.21721-.18497-.35342v-1.02964c0-.13621.08281-.19881.18496-.13983l.94893.54787c.10216.05898.18497.21721.18497.35342v1.02964c0,.13621-.08281.19881-.18496.13983Z"/><path class="cls-4" d="M23.89236,32.63896l-.94893-.54787c-.10216-.05898-.18497-.21721-.18497-.35342v-1.02964c0-.13621.08281-.19881.18496-.13983l.94893.54787c.10216.05898.18497.21721.18497.35342v1.02964c0,.13621-.08281.19881-.18496.13983Z"/><path class="cls-3" d="M28.34689,43.04892l-.94893-.54787c-.10216-.05898-.18497-.21721-.18497-.35342v-1.02964c0-.13621.08281-.19881.18496-.13983l.94893.54787c.10216.05898.18497.21721.18497.35342v1.02964c0,.13621-.08281.19881-.18496.13983Z"/><path class="cls-4" d="M48.85375,54.98832l-.94893-.54787c-.10216-.05898-.18497-.21721-.18497-.35342v-1.02964c0-.13621.08281-.19881.18496-.13983l.94893.54787c.10216.05898.18497.21721.18497.35342v1.02964c0,.13621-.08281.19881-.18496.13983Z"/><path class="cls-6" d="M49.71786,47.68798l-.94893-.54787c-.10216-.05898-.18497-.21721-.18497-.35342v-1.02964c0-.13621.08281-.19881.18496-.13983l.94893.54787c.10216.05898.18497.21721.18497.35342v1.02964c0,.13621-.08281.19881-.18496.13983Z"/><path class="cls-3" d="M38.36916,38.70794l-1.85345-1.07009c-.19953-.1152-.36128-.42425-.36128-.69029v-2.01109c-.00001-.26604.16174-.38832.36127-.27312l1.85345,1.07009c.19953.1152.36128.42425.36128.69029v2.01109c.00001.26604-.16174.38832-.36127.27312Z"/></svg>