<?xml version="1.0" encoding="UTF-8"?><svg xmlns="http://www.w3.org/2000/svg" width="90" height="90" xmlns:xlink="http://www.w3.org/1999/xlink" viewBox="0 0 90 90"><defs><style>.cls-1{fill:#2b3073;}.cls-1,.cls-2,.cls-3,.cls-4,.cls-5{stroke-linecap:round;stroke-linejoin:round;stroke-width:.5px;}.cls-1,.cls-2,.cls-3,.cls-5{stroke:#fff;}.cls-2,.cls-6{fill:#2b7360;}.cls-3{fill:url(#linear-gradient-2);}.cls-7{opacity:.4;}.cls-7,.cls-8,.cls-9,.cls-6,.cls-10,.cls-11,.cls-12,.cls-13,.cls-14{stroke-width:0px;}.cls-4{fill:none;stroke:#2b7360;}.cls-5{fill:url(#linear-gradient);}.cls-15{isolation:isolate;}.cls-8{fill:#252d48;mix-blend-mode:multiply;opacity:.45;}.cls-9{fill:#50e5c5;}.cls-10{fill:#28b18b;}.cls-11{fill:#daedf6;}.cls-12{fill:#309085;}.cls-13{fill:#7bfee0;}.cls-14{fill:#fff;}</style><linearGradient id="linear-gradient" x1="25.84214" y1="49.56214" x2="64.07469" y2="49.56214" gradientUnits="userSpaceOnUse"><stop offset=".41883" stop-color="#7bfee0"/><stop offset=".59656" stop-color="#28b18b"/></linearGradient><linearGradient id="linear-gradient-2" y1="36.75823" y2="36.75823" xlink:href="#linear-gradient"/></defs><g class="cls-15"><g id="Layer_1"><path class="cls-7" d="M43.86171,86.1518l-34.15266-19.71805c-.62879-.36303-.62879-.95162,0-1.31465l34.1522-19.71778c.62879-.36303,1.64826-.36303,2.27705,0l34.15266,19.71805c.62879.36303.62879.95162,0,1.31465l-34.1522,19.71778c-.62879.36303-1.64826.36303-2.27705,0Z"/><polygon class="cls-9" points="45.00011 71.98235 9.79387 51.65602 44.99989 31.32982 80.20613 51.65615 45.00011 71.98235"/><polygon class="cls-13" points="9.79387 51.65602 9.79387 58.60601 45.00011 78.93234 45.00011 71.98235 9.79387 51.65602"/><polygon class="cls-10" points="80.20613 51.65615 80.20613 58.60613 45.00011 78.93234 45.00011 71.98235 80.20613 51.65615"/><path class="cls-12" d="M42.04827,63.00502l-15.5777-8.99379c-1.60725-.92795-1.40569-2.54882.45021-3.62032l14.67715-8.47386c1.8559-1.0715,4.66333-1.18787,6.27058-.25993l15.5777,8.99379c1.60725.92795,1.40569,2.54882-.45021,3.62032l-14.67715,8.47386c-1.8559,1.0715-4.66333,1.18787-6.27058.25993Z"/><path class="cls-2" d="M42.11616,49.59401l-15.21429-8.78397c-1.56976-.9063-1.37289-2.48936.4397-3.53586l14.33475-8.27617c1.8126-1.0465,4.55454-1.16016,6.1243-.25386l15.21429,8.78397c1.56976.9063,1.37289,2.48936-.4397,3.53586l-14.33475,8.27617c-1.8126,1.0465-4.55454,1.16016-6.1243.25386Z"/><path class="cls-5" d="M64.06037,39.16908c-.04821.66322-.54331,1.35108-1.48517,1.89486l-14.33472,8.27616c-1.81263,1.04651-4.55456,1.16021-6.12433.25386l-15.21427-8.78395c-.7541-.43535-1.08999-1.02768-1.04543-1.64093h-.01431v9.74938h.01431c-.04456.61326.29134,1.20558,1.04543,1.64093l15.21427,8.78395c1.56977.90635,4.3117.79265,6.12433-.25386l14.33472-8.27616c.94186-.54378,1.43696-1.23158,1.48517-1.89486h.01431v-9.74938h-.01431Z"/><path class="cls-2" d="M42.11616,36.7901l-15.21429-8.78397c-1.56976-.9063-1.37289-2.48936.4397-3.53586l14.33475-8.27617c1.8126-1.0465,4.55454-1.16016,6.1243-.25386l15.21429,8.78397c1.56976.9063,1.37289,2.48936-.4397,3.53586l-14.33475,8.27617c-1.8126,1.0465-4.55454,1.16016-6.1243.25386Z"/><path class="cls-3" d="M64.06037,26.36517c-.04821.66322-.54331,1.35108-1.48517,1.89486l-14.33472,8.27616c-1.81263,1.04651-4.55456,1.16021-6.12433.25386l-15.21427-8.78395c-.7541-.43535-1.08999-1.02768-1.04543-1.64093h-.01431v9.74938h.01431c-.04456.61326.29134,1.20558,1.04543,1.64093l15.21427,8.78395c1.56977.90635,4.3117.79265,6.12433-.25386l14.33472-8.27616c.94186-.54378,1.43696-1.23158,1.48517-1.89486h.01431v-9.74938h-.01431Z"/><ellipse class="cls-8" cx="44.95839" cy="26.36516" rx="8.03765" ry="4.64054"/><ellipse class="cls-11" cx="44.95839" cy="26.36516" rx="5.58808" ry="3.22628"/><polygon class="cls-2" points="41.9251 56.96367 27.75017 48.77977 27.75017 43.44804 41.9251 51.63194 41.9251 56.96367"/><ellipse class="cls-14" cx="33.41387" cy="49.33448" rx=".6838" ry="1.18437" transform="translate(-20.19077 23.31679) rotate(-30.00031)"/><ellipse class="cls-14" cx="30.15046" cy="47.45626" rx=".6838" ry="1.18437" transform="translate(-19.68888 21.43343) rotate(-30.00031)"/><line class="cls-1" x1="36.2931" y1="51.00781" x2="40.06463" y2="53.1853"/><polygon class="cls-2" points="41.9251 44.28001 27.75017 36.09612 27.75017 30.76438 41.9251 38.94828 41.9251 44.28001"/><ellipse class="cls-14" cx="33.41387" cy="36.65083" rx=".6838" ry="1.18437" transform="translate(-13.84889 21.61747) rotate(-30.00031)"/><ellipse class="cls-14" cx="30.15046" cy="34.77261" rx=".6838" ry="1.18437" transform="translate(-13.34699 19.73411) rotate(-30.00031)"/><ellipse class="cls-6" cx="58.22706" cy="33.70509" rx="1.18437" ry=".6838" transform="translate(-.07612 67.27834) rotate(-59.99969)"/><ellipse class="cls-6" cx="61.49047" cy="31.81902" rx="1.18437" ry=".6838" transform="translate(3.18895 69.1615) rotate(-59.99969)"/><ellipse class="cls-6" cx="58.22706" cy="46.51912" rx="1.18437" ry=".6838" transform="translate(-11.17336 73.6853) rotate(-59.99969)"/><ellipse class="cls-6" cx="61.49047" cy="44.63305" rx="1.18437" ry=".6838" transform="translate(-7.90829 75.56846) rotate(-59.99969)"/><line class="cls-1" x1="36.2931" y1="38.32416" x2="40.06463" y2="40.50165"/><line class="cls-4" x1="50.54647" y1="41.03067" x2="61.68691" y2="34.5987"/><line class="cls-4" x1="50.54647" y1="42.62889" x2="61.68691" y2="36.19692"/><line class="cls-4" x1="50.54647" y1="53.88823" x2="61.68691" y2="47.45626"/><line class="cls-4" x1="50.54647" y1="55.48645" x2="61.68691" y2="49.05448"/></g></g></svg>