<?xml version="1.0" encoding="UTF-8"?><svg xmlns="http://www.w3.org/2000/svg" width="90" height="90" xmlns:xlink="http://www.w3.org/1999/xlink" viewBox="0 0 90 90"><defs><style>.cls-1{fill:#b17c27;}.cls-1,.cls-2,.cls-3,.cls-4,.cls-5,.cls-6,.cls-7{stroke:#fff;stroke-linecap:round;stroke-linejoin:round;stroke-width:.5px;}.cls-2{fill:#73472b;}.cls-3,.cls-8{fill:#ffd27a;}.cls-4,.cls-9{fill:#fdb357;}.cls-5{fill:url(#linear-gradient-2);}.cls-6{fill:none;}.cls-10{opacity:.4;}.cls-10,.cls-11,.cls-12,.cls-13,.cls-9,.cls-8{stroke-width:0px;}.cls-7{fill:url(#linear-gradient);}.cls-14{isolation:isolate;}.cls-11{fill:#252d48;mix-blend-mode:multiply;opacity:.45;}.cls-12{fill:#9c713b;}.cls-13{fill:#c9832b;}</style><linearGradient id="linear-gradient" x1="41.12593" y1="22.06017" x2="54.97763" y2="47.30213" gradientUnits="userSpaceOnUse"><stop offset=".4582" stop-color="#fdb357"/><stop offset=".51675" stop-color="#f3aa4f"/><stop offset=".61378" stop-color="#da9239"/><stop offset=".66864" stop-color="#c9832b"/></linearGradient><linearGradient id="linear-gradient-2" x1="42.40811" y1="11.11847" x2="49.94164" y2="24.65465" gradientUnits="userSpaceOnUse"><stop offset=".2868" stop-color="#fdb357"/><stop offset=".44025" stop-color="#f3aa4f"/><stop offset=".69455" stop-color="#da9239"/><stop offset=".83835" stop-color="#c9832b"/></linearGradient></defs><g class="cls-14"><g id="Layer_1"><path class="cls-10" d="M43.86171,86.1518l-34.15266-19.71805c-.62879-.36303-.62879-.95162,0-1.31465l34.1522-19.71778c.62879-.36303,1.64826-.36303,2.27705,0l34.15266,19.71805c.62879.36303.62879.95162,0,1.31465l-34.1522,19.71778c-.62879.36303-1.64826.36303-2.27705,0Z"/><polygon class="cls-9" points="45.00011 71.98235 9.79387 51.65602 44.99989 31.32982 80.20613 51.65615 45.00011 71.98235"/><polygon class="cls-8" points="9.79387 51.65602 9.79387 58.60601 45.00011 78.93234 45.00011 71.98235 9.79387 51.65602"/><polygon class="cls-13" points="80.20613 51.65615 80.20613 58.60613 45.00011 78.93234 45.00011 71.98235 80.20613 51.65615"/><path class="cls-12" d="M67.7177,53.21278l-1.19958-.69196.75586-.4364-22.27405-12.85992-22.27386,12.8598.62457.3606-1.33118.76788c-.28906.16699-.4541.41309-.4541.67627,0,.2627.16504.50879.4541.67529.25781.14941.58887.22363.9209.22363.33105,0,.66211-.07422.91992-.22363l1.5-.86572c.02502-.0144.04102-.03784.05927-.0592l1.53558.88654-1.33118.76788c-.28906.16699-.4541.41309-.4541.67627,0,.2627.16504.50879.4541.67529.25781.14941.58984.22412.9209.22412s.66309-.07471.9209-.22412l1.49902-.86572c.02502-.0144.04102-.03784.05927-.0592l1.53571.8866-1.33032.76831c-.28906.1665-.4541.41309-.4541.67578s.16504.50928.4541.67578c.25781.14893.58887.22363.91992.22363s.66211-.07471.9209-.22363l1.49902-.86572c.02515-.01447.04126-.03802.05957-.05951l1.53546.88647-1.33038.76874c-.28906.1665-.4541.4126-.4541.67529-.00098.2627.16504.50879.4541.67627.25781.14844.58887.22314.91992.22314.33203,0,.66309-.07471.9209-.22363l1.5-.86572c.02496-.0144.04102-.03778.05927-.05914l1.53552.88654-1.33112.76782c-.28906.16699-.4541.41309-.4541.67627,0,.2627.16504.50879.4541.67529.25781.14941.58887.22363.9209.22363.33105,0,.66211-.07422.91992-.22363l1.5-.86572c.02496-.0144.04095-.03778.0592-.05914l1.53564.8866-1.33118.76825c-.28906.16699-.45508.41309-.4541.67578,0,.2627.16504.50879.4541.67529.25781.14941.58984.22412.9209.22412s.66211-.07471.91992-.22412l1.5-.86572c.02496-.0144.04095-.03778.0592-.05914l1.55713.89899,1.40399-.81061,1.44843.83649c.25781.14941.58984.22412.9209.22412s.66309-.07471.9209-.22363c.28906-.16699.4541-.41309.4541-.67578.00098-.2627-.16504-.50879-.4541-.67578l-1.19965-.69238,1.51398-.87408,1.44934.83649c.25781.14941.58887.22363.9209.22363.33105,0,.66211-.07422.91992-.22314.28906-.16699.4541-.41309.4541-.67578,0-.26318-.16504-.50928-.4541-.67578l-1.19928-.69263,1.51361-.87384,1.44934.83698c.25781.14844.58887.22314.91992.22314.33203,0,.66309-.07471.9209-.22363.28906-.16699.45508-.41309.4541-.67578,0-.2627-.16504-.50879-.4541-.67578l-1.19885-.69232,1.51367-.8739,1.44885.83722c.25781.14844.58984.22314.9209.22314s.66309-.07471.9209-.22363c.28809-.16699.4541-.41309.4541-.67578s-.16602-.50879-.4541-.67578l-1.19971-.69238,1.51398-.87408,1.44843.83649c.25781.14941.58984.22412.9209.22412s.66309-.07471.9209-.22363c.28906-.16699.4541-.41309.4541-.67578,0-.26318-.16504-.50928-.4541-.67627l-1.19958-.69196,1.51385-.87402,1.44843.83649c.25781.14941.58984.22412.9209.22412s.66309-.07471.9209-.22363c.28906-.16699.4541-.41309.4541-.67578,0-.26318-.16504-.50928-.4541-.67627Z"/><polygon class="cls-1" points="67.27396 46.92894 67.27396 49.46587 45.00007 62.32571 45.00007 59.78878 67.27396 46.92894"/><polygon class="cls-3" points="22.72604 46.92886 22.72604 49.46579 45.00007 62.32571 45.00007 59.78878 22.72604 46.92886"/><polygon class="cls-2" points="45.00007 59.78878 22.72604 46.92886 44.99993 34.06902 67.27396 46.92894 45.00007 59.78878"/><path class="cls-9" d="M43.03219,56.05785l-13.84398-7.99283c-1.08686-.6275-1.08686-1.64487-.00001-2.27236l13.84378-7.99271c1.08685-.62749,2.84899-.62749,3.93585,0l13.84398,7.99283c1.08686.6275,1.08686,1.64487.00001,2.27236l-13.84378,7.99271c-1.08685.62749-2.84899.62749-3.93585,0Z"/><path class="cls-11" d="M50.05204,53.15892l-15.84275-9.14682c-.8833-.50997-.88331-1.3368,0-1.84677l2.53998-1.46646c.8833-.50997,2.3154-.50997,3.19871,0l15.84275,9.14682c.8833.50997.88331,1.3368,0,1.84677l-2.53998,1.46646c-.8833.50997-2.3154.50997-3.19871,0Z"/><path class="cls-3" d="M49.17028,49.97134l-12.46443-7.19634c-1.50258-.86752-2.72066-3.19489-2.72066-5.19833v-9.7207c0-2.00344,1.21808-2.92429,2.72066-2.05678l12.46443,7.19634c1.50258.86752,2.72066,3.19489,2.72066,5.19833v9.7207c0,2.00344-1.21808,2.92429-2.72066,2.05678Z"/><path class="cls-6" d="M50.90561,50.11989l.0008.00122.01502-.0087c-.0053.00244-.01049.00509-.01582.00748Z"/><path class="cls-7" d="M56.01504,35.5611c0-1.8644-1.30894-4.13154-2.92357-5.06375l-12.05866-6.96207c-.76468-.44149-1.45854-.50032-1.97953-.24618l-.00077-.00114-.01445.00834c-.04746.02386-.09329.05028-.13771.0794l-3.99537,2.30405.00089.00138c.5234-.26747,1.22682-.21289,2.00285.23516l12.05866,6.96207c1.61463.93221,2.92357,3.19934,2.92357,5.06375v10.22418c0,.86797-.28612,1.49162-.75225,1.82057l3.88307-2.24424c.09314-.04101.18082-.09167.26282-.15191l.02518-.01454-.00131-.00196c.43941-.33698.70658-.94918.70658-1.78894v-10.22418Z"/><path class="cls-2" d="M44.71685,38.35454c0-1.13436-.79638-2.51376-1.7788-3.08096s-1.7788-.10738-1.7788,1.02698c0,.71652.31865,1.52967.80028,2.17528l-.78312,2.90834,3.5233,2.03418-.78312-3.81265c.48163-.08946.80025-.53468.80025-1.25117Z"/><path class="cls-3" d="M49.78873,25.19563l-1.95262-1.12735v-.79177c0-2.74844-1.93689-6.10322-4.31712-7.47744s-4.31665-.2557-4.31665,2.49274v8.04184s-1.95262-1.12735-1.95262-1.12735v-8.04184c0-3.99193,2.81261-5.61577,6.26927-3.62007,3.45713,1.99598,6.26974,6.86754,6.26974,10.85947v.79177Z"/><path class="cls-6" d="M39.07748,13.11644l-.04874.02787.00602.00172c.01478-.00894.0278-.02087.04273-.02959Z"/><path class="cls-2" d="M39.20234,18.2918v8.04184s2.13622-1.23333,2.13622-1.23333v-8.04184c0-.73741.14212-1.35368.39287-1.83836-1.48955-.07308-2.52909,1.05997-2.52909,3.07169Z"/><path class="cls-5" d="M45.65521,12.31106c-1.8111-1.04564-3.43949-1.08913-4.58352-.32601l-.00271-.00755-1.96794,1.12544c1.13422-.64771,2.69588-.55279,4.41795.44145,3.45713,1.99598,6.26974,6.86754,6.26974,10.85947v.79177s2.13622-1.23333,2.13622-1.23333v-.79177c0-3.99193-2.81261-8.86349-6.26974-10.85947Z"/><path class="cls-4" d="M47.97792,62.33799l-1.49956-.86577,1.59118-.91867,1.49956.86577c.43939.25368.4394.66499,0,.91867h0c-.43939.25368-1.15179.25368-1.59118,0Z"/><path class="cls-4" d="M51.58262,60.25682l-1.49956-.86577,1.59118-.91867,1.49956.86577c.43939.25368.4394.66499,0,.91867h0c-.43939.25368-1.15179.25368-1.59118,0Z"/><path class="cls-4" d="M55.18732,58.17564l-1.49956-.86577,1.59118-.91867,1.49956.86577c.43939.25368.4394.66499,0,.91867h0c-.43939.25368-1.15179.25368-1.59118,0Z"/><path class="cls-4" d="M58.79202,56.09447l-1.49956-.86577,1.59118-.91867,1.49956.86577c.43939.25368.4394.66499,0,.91867h0c-.43939.25368-1.15179.25368-1.59118,0Z"/><path class="cls-4" d="M62.39672,54.01329l-1.49956-.86577,1.59118-.91867,1.49956.86577c.43939.25368.4394.66499,0,.91867h0c-.43939.25368-1.15179.25368-1.59118,0Z"/><path class="cls-4" d="M66.00142,51.93212l-1.49956-.86577,1.59118-.91867,1.49956.86577c.43939.25368.4394.66499,0,.91867h0c-.43939.25368-1.15179.25368-1.59118,0Z"/><path class="cls-4" d="M41.75922,62.33799l1.49956-.86577-1.59118-.91867-1.49956.86577c-.43939.25368-.4394.66499,0,.91867h0c.43939.25368,1.15179.25368,1.59118,0Z"/><path class="cls-4" d="M38.15452,60.25682l1.49956-.86577-1.59118-.91867-1.49956.86577c-.43939.25368-.4394.66499,0,.91867h0c.43939.25368,1.15179.25368,1.59118,0Z"/><path class="cls-4" d="M34.54982,58.17564l1.49956-.86577-1.59118-.91867-1.49956.86577c-.43939.25368-.4394.66499,0,.91867h0c.43939.25368,1.15179.25368,1.59118,0Z"/><path class="cls-4" d="M30.94512,56.09447l1.49956-.86577-1.59118-.91867-1.49956.86577c-.43939.25368-.4394.66499,0,.91867h0c.43939.25368,1.15179.25368,1.59118,0Z"/><path class="cls-4" d="M27.34042,54.01329l1.49956-.86577-1.59118-.91867-1.49956.86577c-.43939.25368-.4394.66499,0,.91867h0c.43939.25368,1.15179.25368,1.59118,0Z"/><path class="cls-4" d="M23.73572,51.93212l1.49956-.86577-1.59118-.91867-1.49956.86577c-.43939.25368-.4394.66499,0,.91867h0c.43939.25368,1.15179.25368,1.59118,0Z"/></g></g></svg>