<?xml version="1.0" encoding="UTF-8"?><svg id="Layer_1" xmlns="http://www.w3.org/2000/svg" width="90" height="90" xmlns:xlink="http://www.w3.org/1999/xlink" viewBox="0 0 90 90"><defs><style>.cls-1{fill:#2b3073;}.cls-1,.cls-2{stroke:#fff;stroke-linecap:round;stroke-linejoin:round;stroke-width:.5px;}.cls-3{opacity:.4;}.cls-3,.cls-4,.cls-5,.cls-6,.cls-7,.cls-8{stroke-width:0px;}.cls-2{fill:url(#linear-gradient);}.cls-4{fill:#5867cb;}.cls-5{fill:#5561ab;}.cls-6{fill:#daedf6;}.cls-7{fill:#a6b5fd;}.cls-8{fill:#8a99fc;}</style><linearGradient id="linear-gradient" x1="22.64164" y1="48.60487" x2="64.15714" y2="48.60487" gradientUnits="userSpaceOnUse"><stop offset=".5287" stop-color="#a3cbf2"/><stop offset=".7696" stop-color="#7179ef"/></linearGradient></defs><path class="cls-3" d="M43.86171,86.15675l-34.15266-19.71805c-.62879-.36303-.62879-.95162,0-1.31465l34.1522-19.71778c.62879-.36303,1.64826-.36303,2.27705,0l34.15266,19.71805c.62879.36303.62879.95162,0,1.31465l-34.1522,19.71778c-.62879.36303-1.64826.36303-2.27705,0Z"/><polygon class="cls-8" points="45.00011 71.98731 9.79387 51.66098 44.99989 31.33478 80.20613 51.66111 45.00011 71.98731"/><polygon class="cls-7" points="9.79387 51.66098 9.79387 58.61096 45.00011 78.93729 45.00011 71.98731 9.79387 51.66098"/><polygon class="cls-4" points="80.20613 51.66111 80.20613 58.61109 45.00011 78.93729 45.00011 71.98731 80.20613 51.66111"/><path class="cls-5" d="M45.2164,63.1055l-21.19474-12.23679c-2.35191-1.35787-2.05697-3.72971.65876-5.29764l7.72218-4.4584c2.71573-1.56793,6.82386-1.73821,9.17577-.38034l21.19474,12.23679c2.35191,1.35787,2.05697,3.72971-.65876,5.29764l-7.72218,4.4584c-2.71573,1.56793-6.82386,1.73821-9.17577.38034Z"/><path class="cls-1" d="M44.9584,35.26481l-.58214-22.24931h-1.95373l-.58214,22.24931c0,.23036.15223.46071.45664.63647.60883.35152,1.59594.35152,2.20477,0,.30442-.17576.45664-.40612.45661-.63647h0Z"/><ellipse class="cls-1" cx="43.3994" cy="13.0155" rx=".97687" ry=".564"/><path class="cls-1" d="M53.36223,40.00108l-.58214-22.24931h-1.95373l-.58214,22.24931c0,.23036.15223.46071.45664.63647.60883.35152,1.59594.35152,2.20477,0,.30442-.17576.45664-.40612.45661-.63647h0Z"/><ellipse class="cls-1" cx="51.80322" cy="17.75178" rx=".97687" ry=".564"/><path class="cls-1" d="M61.76606,44.73736l-.58214-22.24931h-1.95373l-.58214,22.24931c0,.23036.15223.46071.45664.63647.60883.35152,1.59594.35152,2.20477,0,.30442-.17576.45664-.40612.45661-.63647h0Z"/><ellipse class="cls-1" cx="60.20705" cy="22.48806" rx=".97687" ry=".564"/><path class="cls-2" d="M64.15714,51.83729c-.00006-.00061,0-.00134,0-.00195v-6.76978l-5.80292,2.13586-16.7583-9.67542c-2.32922-1.34479-6.39783-1.17615-9.0874.37671l-5.06281,2.92303-4.80408-2.45294v6.88574l.00079-.00018c-.01117.86395.49927,1.69067,1.5658,2.30646l20.9906,12.1189c2.32922,1.34479,6.39783,1.17615,9.0874-.37671l7.64783-4.41547c1.47272-.85028,2.22125-1.93884,2.2196-2.97095l.00348.00226v-.08557Z"/><path class="cls-1" d="M45.19888,52.86242l-20.99058-12.11892c-2.32925-1.3448-2.03716-3.69378.65241-5.24661l7.6478-4.41546c2.68957-1.55283,6.75813-1.72147,9.08739-.37667l20.99058,12.11892c2.32925,1.3448,2.03716,3.69378-.65241,5.24661l-7.6478,4.41546c-2.68957,1.55283-6.75813,1.72147-9.08739.37667Z"/><ellipse class="cls-6" cx="40.62143" cy="43.34926" rx="2.21298" ry="1.27766"/><path class="cls-6" d="M44.97792,43.34927c-.00167-1.50142-2.11679-2.72513-4.71954-2.72483l-.00002-1.38504c3.92593-.00158,7.11904,1.84452,7.11851,4.10988h-2.39896Z"/><path class="cls-6" d="M49.69908,43.34897c-.00003-3.00475-4.23469-5.45091-9.44018-5.45029l-.00002-1.38504c6.53143.00034,11.83856,3.06697,11.83916,6.83534h-2.39896Z"/><path class="cls-1" d="M42.7114,49.17405l-12.11466-6.9944c-.9329-.53861-2.56243-.47106-3.63965.15087h0s15.493,8.94489,15.493,8.94489h0c1.07722-.62194,1.19422-1.56274.26132-2.10136Z"/><path class="cls-1" d="M26.95709,42.33052v3.00369c0,1.29419.69044,2.49007,1.81124,3.13716l11.87219,6.85441c.80425.46434,1.80957-.11608,1.80957-1.04476v-3.00562s-15.493-8.94489-15.493-8.94489Z"/><ellipse class="cls-6" cx="37.60573" cy="50.91479" rx=".6533" ry="1.13156" transform="translate(-20.41932 25.62447) rotate(-30.00031)"/><ellipse class="cls-6" cx="34.61338" cy="49.18404" rx=".6533" ry="1.13156" transform="translate(-19.95484 23.8964) rotate(-30.00031)"/><ellipse class="cls-6" cx="31.62103" cy="47.45329" rx=".6533" ry="1.13156" transform="translate(-19.49037 22.16832) rotate(-30.00031)"/></svg>